<svg width="101" height="101" viewBox="0 0 101 101" fill="none" xmlns="http://www.w3.org/2000/svg">
<rect x="0.631012" width="100" height="100" rx="35" transform="rotate(0.361543 0.631012 0)" fill="#333740"/>
<path d="M17.2851 59.0731C17.0691 58.7851 16.9611 58.4251 16.9611 57.9931C16.9611 57.3691 17.2731 56.8411 17.8971 56.4091C18.2331 56.1931 18.5811 56.0851 18.9411 56.0851C19.4451 56.0851 19.9251 56.3131 20.3811 56.7691C21.1011 57.5131 21.8451 58.0651 22.6131 58.4251C23.4051 58.7851 24.3531 58.9651 25.4571 58.9651C27.3291 58.8931 28.2651 58.1851 28.2651 56.8411C28.2651 56.1451 27.9411 55.6171 27.2931 55.2571C26.6691 54.8971 25.6851 54.5371 24.3411 54.1771C22.9491 53.7931 21.8091 53.4091 20.9211 53.0251C20.0571 52.6411 19.3011 52.0651 18.6531 51.2971C18.0291 50.5051 17.7171 49.4491 17.7171 48.1291C17.7171 46.9771 18.0411 45.9811 18.6891 45.1411C19.3611 44.2771 20.2251 43.6171 21.2811 43.1611C22.3611 42.6811 23.5011 42.4411 24.7011 42.4411C25.9251 42.4411 27.1491 42.6691 28.3731 43.1251C29.5971 43.5811 30.5571 44.2531 31.2531 45.1411C31.5651 45.5251 31.7211 45.9571 31.7211 46.4371C31.7211 46.9891 31.4931 47.4451 31.0371 47.8051C30.7011 48.0691 30.3171 48.2011 29.8851 48.2011C29.3571 48.2011 28.9251 48.0331 28.5891 47.6971C28.1571 47.1691 27.5931 46.7491 26.8971 46.4371C26.2251 46.1251 25.4571 45.9691 24.5931 45.9691C22.7691 45.9691 21.8571 46.6291 21.8571 47.9491C21.8571 48.4771 22.0251 48.9091 22.3611 49.2451C22.6971 49.5571 23.1171 49.8091 23.6211 50.0011C24.1491 50.1691 24.8811 50.3851 25.8171 50.6491C27.1131 51.0091 28.1931 51.3811 29.0571 51.7651C29.9211 52.1491 30.6531 52.7371 31.2531 53.5291C31.8531 54.3211 32.1531 55.3651 32.1531 56.6611C32.1531 57.8371 31.8051 58.8691 31.1091 59.7571C30.4131 60.6211 29.5131 61.2811 28.4091 61.7371C27.3291 62.1931 26.2131 62.4211 25.0611 62.4211C23.4771 62.4211 22.0011 62.1571 20.6331 61.6291C19.2651 61.1011 18.1491 60.2491 17.2851 59.0731ZM46.0643 42.4411C48.5123 42.4411 50.2043 43.1731 51.1403 44.6371C52.0763 46.0771 52.5443 48.0811 52.5443 50.6491V59.8651C52.5443 60.4891 52.3403 61.0171 51.9323 61.4491C51.5243 61.8571 51.0083 62.0611 50.3843 62.0611C49.7603 62.0611 49.2443 61.8571 48.8363 61.4491C48.4283 61.0171 48.2243 60.4891 48.2243 59.8651V50.6491C48.2243 49.3291 47.9483 48.2971 47.3963 47.5531C46.8443 46.7851 45.8963 46.4011 44.5523 46.4011C43.1603 46.4011 42.0683 46.8091 41.2763 47.6251C40.4843 48.4171 40.0883 49.4251 40.0883 50.6491V59.8651C40.0883 60.4891 39.8843 61.0171 39.4763 61.4491C39.0683 61.8571 38.5523 62.0611 37.9283 62.0611C37.3043 62.0611 36.7883 61.8571 36.3803 61.4491C35.9723 61.0171 35.7683 60.4891 35.7683 59.8651V44.9971C35.7683 44.3731 35.9723 43.8571 36.3803 43.4491C36.7883 43.0171 37.3043 42.8011 37.9283 42.8011C38.5523 42.8011 39.0683 43.0171 39.4763 43.4491C39.8843 43.8571 40.0883 44.3731 40.0883 44.9971V45.6091C40.7363 44.7451 41.5763 44.0011 42.6083 43.3771C43.6643 42.7531 44.8163 42.4411 46.0643 42.4411ZM72.8016 42.4411C73.4256 42.4411 73.9416 42.6451 74.3496 43.0531C74.7576 43.4611 74.9616 43.9891 74.9616 44.6371V59.8651C74.9616 60.4891 74.7576 61.0171 74.3496 61.4491C73.9416 61.8571 73.4256 62.0611 72.8016 62.0611C72.1776 62.0611 71.6616 61.8571 71.2536 61.4491C70.8696 61.0411 70.6656 60.5251 70.6416 59.9011C70.0416 60.5971 69.2256 61.1971 68.1936 61.7011C67.1856 62.1811 66.1176 62.4211 64.9896 62.4211C63.3336 62.4211 61.8336 62.0011 60.4896 61.1611C59.1456 60.2971 58.0776 59.1091 57.2856 57.5971C56.5176 56.0851 56.1336 54.3691 56.1336 52.4491C56.1336 50.5291 56.5176 48.8131 57.2856 47.3011C58.0536 45.7651 59.0976 44.5771 60.4176 43.7371C61.7616 42.8731 63.2376 42.4411 64.8456 42.4411C65.9976 42.4411 67.0776 42.6571 68.0856 43.0891C69.0936 43.4971 69.9456 44.0251 70.6416 44.6731V44.6371C70.6416 44.0131 70.8456 43.4971 71.2536 43.0891C71.6616 42.6571 72.1776 42.4411 72.8016 42.4411ZM65.5296 58.4611C67.0896 58.4611 68.3616 57.8971 69.3456 56.7691C70.3296 55.6171 70.8216 54.1771 70.8216 52.4491C70.8216 50.7211 70.3296 49.2811 69.3456 48.1291C68.3616 46.9771 67.0896 46.4011 65.5296 46.4011C63.9936 46.4011 62.7336 46.9771 61.7496 48.1291C60.7656 49.2811 60.2736 50.7211 60.2736 52.4491C60.2736 54.1771 60.7536 55.6171 61.7136 56.7691C62.6976 57.8971 63.9696 58.4611 65.5296 58.4611Z" fill="white"/>
<rect x="81.2603" y="28.0611" width="10.7287" height="47.974" rx="5" transform="rotate(17.2161 81.2603 28.0611)" fill="#333740"/>
<rect x="83.2602" y="28.0611" width="5.7612" height="47.136" rx="2.8806" transform="rotate(17.2161 83.2602 28.0611)" fill="#A299FF"/>
</svg>
